<svg width="248" height="215" viewBox="0 0 248 215" fill="none" xmlns="http://www.w3.org/2000/svg">
<path d="M243.048 161.821L156.533 17.906C153.034 12.4166 148.214 7.89892 142.517 4.7696C136.82 1.64028 130.43 0 123.934 0C117.439 0 111.048 1.64028 105.351 4.7696C99.6543 7.89892 94.8344 12.4166 91.3361 17.906L4.82099 161.821C1.7648 166.932 0.103701 172.759 0.00470001 178.717C-0.0943014 184.675 1.37228 190.554 4.257 195.764C7.59217 201.628 12.4196 206.498 18.2461 209.877C24.0725 213.257 30.689 215.024 37.4192 214.998H210.449C217.136 215.069 223.722 213.371 229.545 210.073C235.367 206.776 240.219 201.996 243.612 196.216C246.581 190.953 248.095 184.989 247.995 178.942C247.896 172.895 246.188 166.984 243.048 161.821V161.821ZM123.934 169.741C121.703 169.741 119.523 169.078 117.668 167.835C115.813 166.591 114.367 164.824 113.513 162.757C112.66 160.69 112.436 158.415 112.871 156.22C113.307 154.025 114.381 152.009 115.958 150.427C117.536 148.845 119.546 147.767 121.734 147.331C123.922 146.894 126.19 147.118 128.251 147.974C130.312 148.831 132.074 150.281 133.313 152.141C134.552 154.002 135.214 156.19 135.214 158.427C135.214 161.428 134.026 164.306 131.91 166.428C129.795 168.549 126.926 169.741 123.934 169.741ZM135.214 124.485C135.214 127.486 134.026 130.363 131.91 132.485C129.795 134.607 126.926 135.799 123.934 135.799C120.943 135.799 118.074 134.607 115.958 132.485C113.843 130.363 112.655 127.486 112.655 124.485V79.2285C112.655 76.2278 113.843 73.35 115.958 71.2282C118.074 69.1064 120.943 67.9144 123.934 67.9144C126.926 67.9144 129.795 69.1064 131.91 71.2282C134.026 73.35 135.214 76.2278 135.214 79.2285V124.485Z" fill="#D44848"/>
</svg>
